<svg xmlns:dc="http://purl.org/dc/elements/1.1/" xmlns:cc="http://creativecommons.org/ns#" xmlns:rdf="http://www.w3.org/1999/02/22-rdf-syntax-ns#" xmlns:svg="http://www.w3.org/2000/svg" xmlns="http://www.w3.org/2000/svg" xmlns:sodipodi="http://sodipodi.sourceforge.net/DTD/sodipodi-0.dtd" xmlns:inkscape="http://www.inkscape.org/namespaces/inkscape" version="1.1" x="0px" y="0px" viewBox="0 0 100 125"><g transform="translate(0,-952.36218)"><path style="text-indent:0;text-transform:none;direction:ltr;block-progression:tb;baseline-shift:baseline;color:#000000;enable-background:accumulate;" d="m 57.999998,973.36213 c 12.4065,0 21.4034,10.06 22.0625,21.0625 7.511004,2.5392 12.937504,9.59237 12.937504,17.93747 0,10.4698 -8.530204,19.0001 -19.000004,19.0001 l -48,0 c -11.0433,0 -19,-7.5768 -19,-17.0001 0,-7.4106 4.8446,-14.58847 12.1875,-16.59367 0.4779,-5.7889 3.319,-10.2477 7.2813,-12.625 3.8235,-2.2942 8.5177,-2.6928 12.75,-1.1875 3.6028,-5.9055 10.1976,-10.5938 18.7812,-10.5938 z m 0,4 c -7.7675,0 -13.533,4.5035 -16.2188,9.875 a 2.0002,2.0002 0 0 1 -2.6874,0.9063 c -3.374,-1.687 -7.3954,-1.494 -10.5626,0.4062 -3.1671,1.9003 -5.5312,5.4237 -5.5312,10.8125 a 2.0002,2.0002 0 0 1 -1.6562,1.96877 c -6.0088,1.0082 -10.3438,7.0047 -10.3438,13.0312 0,7.2363 5.7059,13.0001 15,13.0001 l 48,0 c 8.308,0 15.000004,-6.6921 15.000004,-15.0001 0,-7.03 -4.818704,-12.88687 -11.312504,-14.53117 a 2.0002,2.0002 0 0 1 -1.5,-1.9688 c 0.09,-9.3863 -7.4923,-18.5 -18.1875,-18.5 z" fill="#000000" fill-opacity="1" stroke="none" marker="none" visibility="visible" display="inline" overflow="visible"/></g></svg>