<?xml version="1.0" encoding="utf-8"?>
<!-- Generator: Adobe Illustrator 21.1.0, SVG Export Plug-In . SVG Version: 6.00 Build 0)  -->
<!DOCTYPE svg PUBLIC "-//W3C//DTD SVG 1.1//EN" "http://www.w3.org/Graphics/SVG/1.1/DTD/svg11.dtd">
<svg version="1.1" id="Layer_1" xmlns="http://www.w3.org/2000/svg" xmlns:xlink="http://www.w3.org/1999/xlink" x="0px" y="0px"
	 width="30px" height="30px" viewBox="0 0 30 30" style="enable-background:new 0 0 30 30;" xml:space="preserve">
<style type="text/css">
	.st0{fill:#FFFFFF;}
</style>
<path class="st0" d="M22.9,21.6v-5.5c0-2.9-1.6-4.3-3.6-4.3c-1.7,0-2.4,0.9-2.9,1.6v-1.4h-3.2c0,0.9,0,9.5,0,9.5h3.2v-5.3
	c0-0.3,0-0.6,0.1-0.8c0.2-0.6,0.7-1.2,1.6-1.2c1.1,0,1.6,0.9,1.6,2.2v5.1L22.9,21.6L22.9,21.6z M9.8,10.8c1.1,0,1.8-0.7,1.8-1.6
	c0-0.9-0.7-1.6-1.8-1.6S8.1,8.2,8.1,9.1C8.1,10,8.8,10.8,9.8,10.8L9.8,10.8z M15,29C7.3,29,1,22.7,1,15C1,7.3,7.3,1,15,1
	s14,6.3,14,14C29,22.7,22.7,29,15,29z M11.4,21.6v-9.5H8.3v9.5H11.4z"/>
</svg>
