<?xml version="1.0" encoding="utf-8"?>
<!-- Generator: Adobe Illustrator 21.1.0, SVG Export Plug-In . SVG Version: 6.00 Build 0)  -->
<!DOCTYPE svg PUBLIC "-//W3C//DTD SVG 1.1//EN" "http://www.w3.org/Graphics/SVG/1.1/DTD/svg11.dtd">
<svg version="1.1" id="Layer_1" xmlns="http://www.w3.org/2000/svg" xmlns:xlink="http://www.w3.org/1999/xlink" x="0px" y="0px"
	 width="30px" height="30px" viewBox="0 0 30 30" style="enable-background:new 0 0 30 30;" xml:space="preserve">
<style type="text/css">
	.st0{fill:#FFFFFF;}
</style>
<path class="st0" d="M16.9,9.5c-1.2,0.4-2,1.6-1.9,2.8l0,0.5l-0.5-0.1c-1.8-0.2-3.3-1-4.7-2.3L9.3,9.9l-0.2,0.5
	c-0.4,1.1-0.1,2.2,0.6,2.9c0.4,0.4,0.3,0.5-0.4,0.2c-0.2-0.1-0.4-0.1-0.5-0.1c-0.1,0.1,0.2,1,0.4,1.3c0.3,0.5,0.8,1,1.3,1.3l0.5,0.2
	l-0.6,0c-0.5,0-0.6,0-0.5,0.2c0.2,0.6,1,1.3,1.8,1.6l0.6,0.2l-0.5,0.3c-0.8,0.5-1.7,0.7-2.6,0.7c-0.4,0-0.8,0-0.8,0.1
	c0,0.1,1.2,0.7,1.9,0.9c2.1,0.6,4.6,0.4,6.4-0.7c1.3-0.8,2.6-2.3,3.3-3.8c0.3-0.8,0.7-2.3,0.7-3c0-0.5,0-0.5,0.6-1.1
	c0.3-0.3,0.6-0.7,0.7-0.8c0.1-0.2,0.1-0.2-0.4,0c-0.8,0.3-0.9,0.3-0.5-0.2c0.3-0.3,0.7-0.9,0.7-1.1c0,0-0.1,0-0.3,0.1
	c-0.2,0.1-0.6,0.2-0.9,0.3L20,10.3l-0.5-0.3c-0.3-0.2-0.6-0.4-0.8-0.4C18.2,9.4,17.4,9.4,16.9,9.5z M15,29C7.3,29,1,22.7,1,15
	C1,7.3,7.3,1,15,1s14,6.3,14,14C29,22.7,22.7,29,15,29z"/>
</svg>
